<?xml version="1.0" encoding="UTF-8"?>
<svg xmlns="http://www.w3.org/2000/svg" viewBox="0 0 512 512" fill="none" role="img" aria-label="Smeltr">
  <defs>
    <linearGradient id="bg" x1="0" y1="0" x2="512" y2="512" gradientUnits="userSpaceOnUse">
      <stop offset="0%" stop-color="#1A0C05"/>
      <stop offset="100%" stop-color="#2D1507"/>
    </linearGradient>
    <linearGradient id="sFill" x1="256" y1="120" x2="256" y2="392" gradientUnits="userSpaceOnUse">
      <stop offset="0%" stop-color="#FBBF24"/>
      <stop offset="45%" stop-color="#F59E0B"/>
      <stop offset="100%" stop-color="#D97706"/>
    </linearGradient>
    <pattern id="ribs" width="512" height="7" patternUnits="userSpaceOnUse">
      <rect width="512" height="3.5" fill="#92400E" opacity="0.5"/>
      <rect y="3.5" width="512" height="3.5" fill="transparent"/>
    </pattern>
    <clipPath id="sClip">
      <path d="M 211 136 L 301 136 L 301 196 L 256 241 L 301 286 L 301 346 L 211 346 L 211 286 L 256 241 L 211 196 Z"/>
    </clipPath>
    <filter id="spark" x="-80%" y="-80%" width="260%" height="260%">
      <feGaussianBlur stdDeviation="2.5" result="b"/>
      <feMerge>
        <feMergeNode in="b"/>
        <feMergeNode in="SourceGraphic"/>
      </feMerge>
    </filter>
  </defs>
  <rect width="512" height="512" fill="url(#bg)"/>
  <rect width="512" height="512" fill="#F59E0B" opacity="0.05"/>
  <g clip-path="url(#sClip)">
    <rect x="180" y="120" width="152" height="280" fill="url(#sFill)"/>
    <rect x="180" y="120" width="152" height="280" fill="url(#ribs)"/>
  </g>
  <path d="M 211 136 L 301 136 L 301 196 L 256 241 L 301 286 L 301 346 L 211 346 L 211 286 L 256 241 L 211 196 Z" fill="none" stroke="#FEF3C7" stroke-width="3" opacity="0.2"/>
  <circle cx="318" cy="128" r="9" fill="#FDE68A" filter="url(#spark)"/>
  <circle cx="338" cy="112" r="5.5" fill="#FBBF24" filter="url(#spark)"/>
  <circle cx="302" cy="108" r="4" fill="#F59E0B" filter="url(#spark)"/>
</svg>
