<svg xmlns="http://www.w3.org/2000/svg" viewBox="0 0 40 40" fill="none">
  <defs>
    <linearGradient id="bg2" x1="0" y1="0" x2="1" y2="1">
      <stop offset="0%" stop-color="#FFF7ED"/>
      <stop offset="100%" stop-color="#FFEDD5"/>
    </linearGradient>
  </defs>
  <circle cx="20" cy="20" r="19" fill="url(#bg2)" stroke="#FED7AA" stroke-width="1"/>
  <!-- Shield -->
  <path d="M20 8l10 4v8c0 6-10 12-10 12S10 26 10 20v-8l10-4z" fill="#FB923C" opacity="0.2"/>
  <path d="M20 10l8 3.2v6.8c0 5-8 10-8 10s-8-5-8-10v-6.8L20 10z" fill="#F97316" opacity="0.4"/>
  <!-- Lock body -->
  <rect x="16" y="21" width="8" height="6" rx="1.5" fill="#EA580C"/>
  <!-- Lock shackle -->
  <path d="M17.5 21v-2a2.5 2.5 0 015 0v2" stroke="#EA580C" stroke-width="1.5" stroke-linecap="round" fill="none"/>
  <!-- Keyhole -->
  <circle cx="20" cy="23.5" r="1" fill="#FFF7ED"/>
  <rect x="19.5" y="24" width="1" height="1.5" fill="#FFF7ED"/>
</svg>
