<svg xmlns="http://www.w3.org/2000/svg" viewBox="0 0 200 200" fill="none">
  <defs>
    <linearGradient id="bg" x1="0" y1="0" x2="1" y2="1">
      <stop offset="0%" stop-color="#0EA5E9"/>
      <stop offset="50%" stop-color="#6366F1"/>
      <stop offset="100%" stop-color="#8B5CF6"/>
    </linearGradient>
    <linearGradient id="wave1" x1="0" y1="0" x2="1" y2="0">
      <stop offset="0%" stop-color="white" stop-opacity="0"/>
      <stop offset="50%" stop-color="white" stop-opacity="0.8"/>
      <stop offset="100%" stop-color="white" stop-opacity="0"/>
    </linearGradient>
  </defs>
  <circle cx="100" cy="100" r="100" fill="url(#bg)"/>
  <!-- Flux waves - sine-like overlapping arcs -->
  <path d="M20 100 C35 70 55 70 70 100 C85 130 105 130 120 100 C135 70 155 70 180 100" stroke="white" stroke-width="4" stroke-linecap="round" fill="none" opacity="0.9"/>
  <path d="M20 82 C35 52 55 52 70 82 C85 112 105 112 120 82 C135 52 155 52 180 82" stroke="white" stroke-width="2.5" stroke-linecap="round" fill="none" opacity="0.5"/>
  <path d="M20 118 C35 88 55 88 70 118 C85 148 105 148 120 118 C135 88 155 88 180 118" stroke="white" stroke-width="2.5" stroke-linecap="round" fill="none" opacity="0.5"/>
  <path d="M20 64 C35 34 55 34 70 64 C85 94 105 94 120 64 C135 34 155 34 180 64" stroke="white" stroke-width="1.5" stroke-linecap="round" fill="none" opacity="0.25"/>
  <path d="M20 136 C35 106 55 106 70 136 C85 166 105 166 120 136 C135 106 155 106 180 136" stroke="white" stroke-width="1.5" stroke-linecap="round" fill="none" opacity="0.25"/>
  <text x="100" y="178" font-family="system-ui" font-size="18" font-weight="700" fill="white" text-anchor="middle" letter-spacing="2">FLUX</text>
</svg>
