<svg xmlns="http://www.w3.org/2000/svg" viewBox="0 0 200 200" fill="none">
  <defs>
    <linearGradient id="bg" x1="0" y1="0" x2="1" y2="1">
      <stop offset="0%" stop-color="#064E3B"/>
      <stop offset="100%" stop-color="#022C22"/>
    </linearGradient>
    <linearGradient id="gem" x1="0" y1="0" x2="1" y2="1">
      <stop offset="0%" stop-color="#6EE7B7"/>
      <stop offset="50%" stop-color="#10B981"/>
      <stop offset="100%" stop-color="#047857"/>
    </linearGradient>
  </defs>
  <circle cx="100" cy="100" r="100" fill="url(#bg)"/>
  <!-- Gem shape - octagon/diamond -->
  <polygon points="100,42 130,58 144,88 130,118 100,134 70,118 56,88 70,58" fill="url(#gem)"/>
  <!-- Gem facets -->
  <polygon points="100,42 130,58 100,88" fill="#A7F3D0" opacity="0.4"/>
  <polygon points="100,42 70,58 100,88" fill="#6EE7B7" opacity="0.3"/>
  <polygon points="100,88 130,58 144,88 130,118" fill="#059669" opacity="0.5"/>
  <polygon points="100,88 70,58 56,88 70,118" fill="#10B981" opacity="0.4"/>
  <polygon points="100,88 130,118 100,134" fill="#047857" opacity="0.6"/>
  <polygon points="100,88 70,118 100,134" fill="#065F46" opacity="0.5"/>
  <!-- Highlight -->
  <polygon points="100,42 115,52 100,65 85,52" fill="white" opacity="0.25"/>
  <text x="100" y="178" font-family="system-ui" font-size="18" font-weight="700" fill="#6EE7B7" text-anchor="middle" letter-spacing="2">JADE</text>
</svg>
