<?xml version="1.0" encoding="UTF-8"?>
<!-- Canonical 512 composition - matches brand/source/master/s-mark-filled.png -->
<svg xmlns="http://www.w3.org/2000/svg" viewBox="0 0 512 512" fill="none" role="img" aria-label="Smeltr mark">
  <defs>
    <linearGradient id="bg" x1="256" y1="0" x2="256" y2="512" gradientUnits="userSpaceOnUse">
      <stop offset="0%" stop-color="#FDE047"/>
      <stop offset="55%" stop-color="#F59E0B"/>
      <stop offset="100%" stop-color="#C2410C"/>
    </linearGradient>
  </defs>
  <rect width="512" height="512" fill="url(#bg)"/>
  <circle cx="256" cy="256" r="214" fill="none" stroke="#171717" stroke-width="5"/>
  <g transform="translate(256 256) scale(3.35) translate(-50 -50)">
    <path d="M 35 10 L 65 10 L 65 30 L 50 45 L 65 60 L 65 80 L 35 80 L 35 60 L 50 45 L 35 30 Z" fill="none" stroke="#171717" stroke-width="2.4" stroke-linejoin="miter"/>
    <path d="M 35 10 L 65 10 L 65 30 L 50 45 L 65 60 L 65 80 L 35 80 L 35 60 L 50 45 L 35 30 Z" fill="none" stroke="#FACC15" stroke-width="1.15" stroke-linejoin="miter"/>
    <circle cx="74" cy="12" r="3" fill="#F5F5F4" opacity="0.95"/>
    <circle cx="80" cy="8" r="2.2" fill="#FAFAF9" opacity="0.92"/>
    <circle cx="77" cy="18" r="1.6" fill="#E7E5E4" opacity="0.88"/>
    <circle cx="26" cy="82" r="2.6" fill="#F5F5F4" opacity="0.92"/>
    <circle cx="20" cy="76" r="2" fill="#FAFAF9" opacity="0.88"/>
    <circle cx="30" cy="78" r="1.5" fill="#E7E5E4" opacity="0.85"/>
  </g>
</svg>
